<svg width="500" height="140" viewBox="0 0 500 140" fill="none" xmlns="http://www.w3.org/2000/svg" role="img" aria-label="MaxPreps">
  <path fill-rule="evenodd" clip-rule="evenodd" d="M211.604 0H184.543L178.123 22.362C183.558 24.0824 187.507 29.2634 187.507 35.4022C187.507 42.9444 181.546 49.0529 174.192 49.0529C166.838 49.0529 160.876 42.9362 160.876 35.394C160.876 29.2047 164.893 23.9997 170.398 22.3235L163.922 0H136.779L158.461 67.1942L134.579 140H162.292L174.273 101.938L186.173 140H213.805L190.086 67.3159L211.604 0Z" fill="#fff"></path>
  <path fill-rule="evenodd" clip-rule="evenodd" d="M164.717 35.662C164.717 41.1956 169.011 45.6814 174.309 45.6814C179.606 45.6814 183.901 41.1956 183.901 35.662C183.901 30.1289 179.606 25.6426 174.309 25.6426C169.011 25.6426 164.717 30.1289 164.717 35.662Z" fill="#fff"></path>
  <path fill-rule="evenodd" clip-rule="evenodd" d="M496.455 48.5911L499.96 36.299L490.097 27.4227H457.494L443.148 36.2994L436.057 60.2774L465.181 68.8463L462.669 77.457H456.891L459.134 69.7594H433.367L429.129 84.3045L439.705 94.2955H470.719L485.777 84.904L493.439 58.6355L464.813 50.298L466.623 44.2612H472.41L471.145 48.5911H496.455Z" fill="#fff"></path>
  <path fill-rule="evenodd" clip-rule="evenodd" d="M407.21 57.2508H401.25L405.132 44.2612H410.878L407.21 57.2508ZM438.693 36.4625L428.729 27.4227H384.53L365.091 94.2955H390.46L396.451 73.6082H415.524L430.502 64.7209L438.693 36.4625Z" fill="#fff"></path>
  <path fill-rule="evenodd" clip-rule="evenodd" d="M342.378 74.0893L344.186 67.835H363.643L368.82 50.5155H349.429L351.207 44.2612H375.178L379.83 27.4227H330.192L310.691 94.2955H360.268L366.13 74.0893H342.378Z" fill="#fff"></path>
  <path fill-rule="evenodd" clip-rule="evenodd" d="M292.655 53.4021H286.537L289.2 44.2612H295.307L292.655 53.4021ZM307.213 60.0672L317.809 53.6383L322.619 36.6997L312.784 27.4227H268.282L248.833 94.2955H274.574L282.319 67.835H288.454L280.744 94.2955H305.93L314.06 66.3407L307.213 60.0672Z" fill="#fff"></path>
  <path fill-rule="evenodd" clip-rule="evenodd" d="M229.862 57.1214C229.862 57.1214 223.83 57.2181 223.82 57.2181L227.58 44.2612H233.611L229.862 57.1214ZM261.12 36.4948L251.409 27.4227H208.122L195.288 67.1134L204.329 94.2955H212.888L219.062 73.6082H237.768L252.929 64.8734L261.12 36.4948Z" fill="#fff"></path>
  <mask id="mask_w" style="mask-type:alpha" maskUnits="userSpaceOnUse" x="0" y="27" width="153" height="68">
    <path d="M0 27.4227H152.979V94.2956H0V27.4227Z" fill="white"></path>
  </mask>
  <g mask="url(#mask_w)">
    <path fill-rule="evenodd" clip-rule="evenodd" d="M118.99 67.3617L129.152 44.2612H131.081L128.343 67.4036L118.99 67.3617ZM144.421 94.2956L152.979 67.2501L140.504 27.4227H117.097L85.7959 90.2418L103.229 27.4227H68.6508L50.1566 64.5121L53.0765 27.4227H18.6238L-0.00012207 94.2956H21.119L32.673 53.3059L31.6339 94.2956H52.8461L74.7313 53.3059L62.9941 94.2956H109.135L113.753 83.4959L126.174 83.5141L124.737 94.2956H144.421Z" fill="#fff"></path>
  </g>
</svg>