<svg width="100" height="140" viewBox="134 0 80 140" fill="none" xmlns="http://www.w3.org/2000/svg" role="img" aria-label="MaxPreps mark">
  <path fill-rule="evenodd" clip-rule="evenodd" d="M211.604 0H184.543L178.123 22.362C183.558 24.0824 187.507 29.2634 187.507 35.4022C187.507 42.9444 181.546 49.0529 174.192 49.0529C166.838 49.0529 160.876 42.9362 160.876 35.394C160.876 29.2047 164.893 23.9997 170.398 22.3235L163.922 0H136.779L158.461 67.1942L134.579 140H162.292L174.273 101.938L186.173 140H213.805L190.086 67.3159L211.604 0Z" fill="#E10500"></path>
  <path fill-rule="evenodd" clip-rule="evenodd" d="M164.717 35.662C164.717 41.1956 169.011 45.6814 174.309 45.6814C179.606 45.6814 183.901 41.1956 183.901 35.662C183.901 30.1289 179.606 25.6426 174.309 25.6426C169.011 25.6426 164.717 30.1289 164.717 35.662Z" fill="#E10500"></path>
</svg>